# xmcd
#
# Track frame offsets: 
#        150
#        11302
#        24515
#        42480
#        52285
#        67110
#        77612
#        87842
#        98955
#        114940
#        125202
#        135237
#        146647
#        162177
#        174065
#
# Disc length: 2487 seconds
#
# Revision: 0
# Processed by: cddbd v1.5PL3 Copyright (c) Steve Scherf et al.
# Submitted via: ExactAudioCopy v0.95a5
#
DISCID=c209b50f
DTITLE=Long and Pardue - Best Dressed Beggar
DYEAR=1900
DGENRE=Bluegrass
TTITLE0=No Rest For The Weary
TTITLE1=Best Dressed Beggar
TTITLE2=My Home Ain't In The Hall Of Fame
TTITLE3=You Won't Be Satisfied That Way
TTITLE4=When I Stop Dreaming
TTITLE5=Some Of Shelly's Blues
TTITLE6=Standing On The Mountain
TTITLE7=Bye Bye Love
TTITLE8=One Way Train
TTITLE9=Sweet Temptation
TTITLE10=Arkansas
TTITLE11=Rebecca
TTITLE12=Mr Engineer
TTITLE13=Away From Me
TTITLE14=Will You Meet Me Over Yonder
EXTD=
EXTT0=
EXTT1=
EXTT2=
EXTT3=
EXTT4=
EXTT5=
EXTT6=
EXTT7=
EXTT8=
EXTT9=
EXTT10=
EXTT11=
EXTT12=
EXTT13=
EXTT14=
PLAYORDER=
